<?xml version="1.0" encoding="utf-8"?>
<!-- Generator: Adobe Illustrator 23.0.3, SVG Export Plug-In . SVG Version: 6.00 Build 0)  -->
<svg version="1.1" id="圖層_1" xmlns="http://www.w3.org/2000/svg" xmlns:xlink="http://www.w3.org/1999/xlink" x="0px" y="0px"
	 viewBox="0 0 240.9 94.6" style="enable-background:new 0 0 240.9 94.6;" xml:space="preserve">
<style type="text/css">
	.st0{fill:#CD281E;}
	.st1{fill:#FFFFFF;}
	.st2{fill:#221714;}
</style>
<g>
	<polygon class="st0" points="85.4,1.3 237.9,1.3 216,60.2 64.5,60.2 	"/>
	<polygon class="st0" points="78.2,1.3 56.6,60.2 42.1,60.2 64.3,1.3 	"/>
	<polygon class="st0" points="55,1.3 32.9,60.2 20,60.2 41.8,1.3 	"/>
	<polygon class="st0" points="32,1.3 10.4,60.2 3,60.2 24.6,1.3 	"/>
	<path class="st1" d="M125.1,29.9c-3.2,1.8-6.7,2.6-10.6,2.6c-2.4,0-4.8-0.4-7-1.1l-6.1,13.5c-0.8,1.8-1,3-0.5,3.7
		c0.4,0.7,1.7,1,4,1l-0.5,1.2l-18.4,0l0.5-1.1c2.2,0,3.9-0.4,4.9-1.2c0.8-0.6,1.6-1.8,2.5-3.5l13.1-28.5c0.8-1.7,1-2.8,0.7-3.4
		c-0.4-0.7-1.6-1.1-3.7-1.1l0.5-1l16.3,0c5.3,0,9,0.9,11.1,2.7c2.1,1.8,2.4,4.5,0.8,8.2C131.2,25.3,128.7,28,125.1,29.9 M120.2,12.5
		c-1.3,0-2.7,0.2-4.4,0.6l-7.5,16.5c1.4,0.6,2.9,0.9,4.7,0.9c2.1,0,4.1-0.7,6.1-2.1c2.3-1.6,4.1-3.8,5.3-6.7
		C127.2,15.6,125.8,12.5,120.2,12.5"/>
	<path class="st1" d="M155.1,48.3c-3.9,2.2-8.1,3.4-12.6,3.4c-2.1,0-4.3-0.3-6.5-0.9c-2.2-0.6-3.8-0.9-4.6-0.9
		c-1.3,0-2.6,0.6-3.8,1.9H126l5.9-13.8l1.6,0c-1.3,7.5,1.7,11.3,9.2,11.3c2.4,0,4.8-0.6,7.2-1.9c2.4-1.2,3.9-2.7,4.6-4.4
		c0.7-1.9,0.3-3.7-1.4-5.4c-0.7-0.8-2.8-2.5-6.3-4.9c-3.2-2.3-5.3-3.9-6.1-5c-1.7-2.2-2.1-4.6-1-7.2c1.3-3,3.7-5.5,7.1-7.5
		c3.5-2,7.3-3,11.2-3c1.9,0,4,0.3,6.2,1c2.2,0.7,3.4,1,3.6,1c1.2,0,2.3-0.7,3.4-2l1.5,0l-5.2,13H166c0.4-3.8,0-6.5-1.4-8.1
		c-1.3-1.7-3.6-2.5-6.9-2.5c-2.2,0-4.3,0.5-6.4,1.6c-2.1,1-3.4,2.3-4,3.8c-0.6,1.5-0.1,3,1.6,4.5c1.9,1.2,3.8,2.5,5.7,3.8
		c3.9,2.8,6.3,4.9,7.3,6.2c1.8,2.3,2.1,4.9,0.9,7.9C161.6,43.3,159,46,155.1,48.3"/>
	<path class="st1" d="M194,48.2c-3.8,2.2-8,3.4-12.4,3.4c-2.1,0-4.3-0.3-6.6-0.9c-2.2-0.6-3.8-0.9-4.7-0.9c-1.3,0-2.6,0.7-3.7,1.9
		H165l5.4-13.8h1.6c-1,7.6,2.2,11.4,9.6,11.3c2.4,0,4.8-0.6,7.1-1.8c2.3-1.2,3.8-2.7,4.4-4.4c0.7-1.9,0.2-3.7-1.6-5.5
		c-0.8-0.8-2.9-2.5-6.4-4.9c-3.3-2.3-5.4-3.9-6.3-5c-1.8-2.2-2.2-4.6-1.2-7.2c1.2-3,3.5-5.5,6.8-7.5c3.5-2,7.2-3,11.1-3
		c1.9,0,4,0.4,6.2,1c2.2,0.7,3.4,1,3.7,1c1.2,0,2.3-0.7,3.3-2h1.5l-4.7,12.9H204c0.3-3.8-0.3-6.5-1.7-8.1c-1.3-1.6-3.7-2.5-7-2.5
		c-2.2,0-4.3,0.5-6.3,1.6c-2,1-3.3,2.3-3.9,3.8c-0.6,1.5,0,3,1.8,4.5c1.9,1.2,3.8,2.5,5.8,3.8c4,2.8,6.5,4.9,7.5,6.2
		c1.9,2.3,2.3,4.9,1.2,7.9C200.3,43.3,197.8,46,194,48.2"/>
	<path class="st1" d="M4.5,92.9V69.1h8.8c1.5,0,2.7,0.1,3.5,0.2c1.1,0.2,2.1,0.6,2.9,1.1c0.8,0.5,1.4,1.3,1.9,2.3
		c0.5,1,0.7,2.1,0.7,3.2c0,2-0.6,3.7-1.9,5.1c-1.3,1.4-3.5,2.1-6.8,2.1h-6v9.7H4.5z M7.6,80.4h6c2,0,3.4-0.4,4.2-1.1
		c0.8-0.8,1.3-1.8,1.3-3.2c0-1-0.3-1.8-0.7-2.6c-0.5-0.7-1.1-1.2-1.9-1.4c-0.5-0.1-1.5-0.2-2.9-0.2h-6V80.4z"/>
	<path class="st1" d="M27.6,85.3l2.9-0.3c0.1,1.2,0.5,2.2,1,2.9c0.5,0.8,1.3,1.4,2.3,1.8c1.1,0.5,2.3,0.7,3.6,0.7
		c1.2,0,2.2-0.2,3.1-0.5c0.9-0.4,1.6-0.8,2-1.5c0.4-0.6,0.7-1.3,0.7-2c0-0.7-0.2-1.4-0.6-2c-0.4-0.6-1.1-1-2.1-1.4
		c-0.6-0.3-2-0.6-4.1-1.2c-2.1-0.5-3.6-1-4.5-1.5c-1.1-0.6-1.9-1.3-2.5-2.2c-0.5-0.9-0.8-1.9-0.8-3c0-1.2,0.3-2.3,1-3.4
		c0.7-1,1.6-1.8,2.9-2.4c1.3-0.5,2.7-0.8,4.3-0.8c1.7,0,3.2,0.3,4.6,0.9c1.3,0.6,2.3,1.4,3,2.5c0.7,1.1,1.1,2.4,1.1,3.7l-3,0.2
		c-0.2-1.5-0.7-2.6-1.6-3.4c-0.9-0.8-2.3-1.2-4.1-1.2c-1.9,0-3.2,0.3-4.1,1c-0.8,0.7-1.3,1.5-1.3,2.5c0,0.9,0.3,1.6,0.9,2.1
		c0.6,0.6,2.1,1.1,4.6,1.7c2.5,0.6,4.2,1.1,5.1,1.5c1.4,0.6,2.4,1.4,3,2.4c0.6,1,1,2.1,1,3.4c0,1.3-0.4,2.5-1.1,3.6
		c-0.7,1.1-1.7,2-3.1,2.6c-1.3,0.6-2.8,0.9-4.5,0.9c-2.1,0-3.9-0.3-5.3-0.9c-1.4-0.6-2.5-1.6-3.3-2.8C28.1,88.3,27.6,86.8,27.6,85.3
		"/>
	<path class="st1" d="M51.7,85.3l2.9-0.3c0.1,1.2,0.5,2.2,1,2.9c0.5,0.8,1.3,1.4,2.3,1.8c1.1,0.5,2.3,0.7,3.6,0.7
		c1.2,0,2.2-0.2,3.1-0.5c0.9-0.4,1.6-0.8,2-1.5c0.4-0.6,0.7-1.3,0.7-2c0-0.7-0.2-1.4-0.6-2c-0.4-0.6-1.1-1-2.1-1.4
		c-0.6-0.3-2-0.6-4.1-1.2c-2.1-0.5-3.6-1-4.5-1.5c-1.1-0.6-1.9-1.3-2.5-2.2c-0.5-0.9-0.8-1.9-0.8-3c0-1.2,0.3-2.3,1-3.4
		c0.7-1,1.6-1.8,2.9-2.4c1.3-0.5,2.7-0.8,4.3-0.8c1.7,0,3.2,0.3,4.6,0.9c1.3,0.6,2.3,1.4,3,2.5c0.7,1.1,1.1,2.4,1.1,3.7l-3,0.2
		c-0.2-1.5-0.7-2.6-1.6-3.4c-0.9-0.8-2.3-1.2-4.1-1.2c-1.9,0-3.2,0.3-4.1,1c-0.8,0.7-1.3,1.5-1.3,2.5c0,0.9,0.3,1.6,0.9,2.1
		c0.6,0.6,2.1,1.1,4.6,1.7c2.5,0.6,4.2,1.1,5.2,1.5c1.4,0.6,2.4,1.4,3,2.4c0.6,1,1,2.1,1,3.4c0,1.3-0.4,2.5-1.1,3.6
		c-0.7,1.1-1.7,2-3.1,2.6c-1.3,0.6-2.8,0.9-4.5,0.9c-2.1,0-3.9-0.3-5.3-0.9c-1.4-0.6-2.5-1.6-3.3-2.8C52.2,88.3,51.8,86.8,51.7,85.3
		"/>
	<path class="st1" d="M99.3,83.6v-2.8l9.9,0v8.8c-1.5,1.2-3.1,2.2-4.7,2.8c-1.6,0.6-3.3,0.9-5,0.9c-2.3,0-4.4-0.5-6.2-1.5
		c-1.9-1-3.3-2.4-4.2-4.3c-1-1.9-1.4-4-1.4-6.3c0-2.3,0.5-4.5,1.4-6.5c0.9-2,2.3-3.5,4.1-4.5c1.8-1,3.8-1.5,6.1-1.5
		c1.7,0,3.2,0.3,4.6,0.8c1.4,0.6,2.4,1.3,3.2,2.3c0.8,1,1.4,2.3,1.8,3.9l-2.8,0.8c-0.3-1.2-0.8-2.2-1.3-2.9
		c-0.5-0.7-1.3-1.2-2.2-1.7c-1-0.4-2-0.6-3.2-0.6c-1.4,0-2.6,0.2-3.7,0.7c-1,0.4-1.9,1-2.5,1.7c-0.6,0.7-1.1,1.5-1.5,2.4
		c-0.6,1.5-0.9,3.1-0.9,4.8c0,2.1,0.4,3.9,1.1,5.3c0.7,1.4,1.8,2.5,3.1,3.2c1.4,0.7,2.8,1,4.4,1c1.3,0,2.6-0.3,3.9-0.8
		c1.3-0.5,2.2-1.1,2.9-1.7v-4.4H99.3z"/>
	<path class="st1" d="M116.1,92.9V69.1h10.3c2.1,0,3.7,0.2,4.7,0.6c1.1,0.4,1.9,1.2,2.6,2.3c0.6,1.1,1,2.3,1,3.6
		c0,1.7-0.5,3.1-1.6,4.3c-1.1,1.2-2.7,1.9-5,2.2c0.8,0.4,1.4,0.8,1.9,1.2c0.9,0.8,1.8,1.9,2.6,3.2l4.1,6.5h-3.9l-3.1-4.9
		c-0.9-1.4-1.6-2.5-2.2-3.3c-0.6-0.8-1.1-1.3-1.6-1.6c-0.5-0.3-0.9-0.5-1.4-0.6c-0.3-0.1-0.9-0.1-1.7-0.1h-3.6v10.6H116.1z
		 M119.2,79.6h6.6c1.4,0,2.5-0.1,3.3-0.4c0.8-0.3,1.4-0.8,1.8-1.4c0.4-0.7,0.6-1.4,0.6-2.1c0-1.1-0.4-2-1.2-2.8
		c-0.8-0.7-2.1-1.1-3.8-1.1h-7.4V79.6z"/>
	<path class="st1" d="M141.1,81.3c0-3.9,1-7,3.1-9.3c2.1-2.2,4.8-3.3,8-3.3c2.2,0,4.1,0.5,5.8,1.6c1.7,1.1,3,2.5,3.9,4.4
		c0.9,1.9,1.4,4,1.4,6.4c0,2.4-0.5,4.6-1.4,6.5c-0.9,1.9-2.3,3.3-4.1,4.3c-1.7,1-3.6,1.5-5.7,1.5c-2.2,0-4.1-0.5-5.9-1.6
		c-1.7-1.1-3-2.6-3.9-4.4C141.5,85.4,141.1,83.4,141.1,81.3 M144.3,81.4c0,2.9,0.8,5.1,2.3,6.8c1.5,1.6,3.4,2.5,5.7,2.5
		c2.3,0,4.2-0.8,5.7-2.5c1.5-1.7,2.2-4,2.2-7.1c0-1.9-0.3-3.6-1-5.1c-0.6-1.4-1.6-2.6-2.8-3.4c-1.2-0.8-2.6-1.2-4.2-1.2
		c-2.2,0-4.1,0.8-5.6,2.3C145,75.2,144.3,77.8,144.3,81.4"/>
	<path class="st1" d="M185,69.1h3.1v13.7c0,2.4-0.3,4.3-0.8,5.7c-0.5,1.4-1.5,2.6-2.9,3.4c-1.4,0.9-3.2,1.3-5.4,1.3
		c-2.2,0-4-0.4-5.4-1.2c-1.4-0.8-2.4-1.9-3-3.3c-0.6-1.5-0.9-3.4-0.9-6V69.1h3.1v13.7c0,2.1,0.2,3.6,0.6,4.6c0.4,1,1,1.7,1.9,2.3
		c0.9,0.5,2,0.8,3.4,0.8c2.3,0,3.9-0.5,4.8-1.6c1-1,1.4-3.1,1.4-6V69.1z"/>
	<path class="st1" d="M195.7,92.9V69.1h8.8c1.5,0,2.7,0.1,3.5,0.2c1.1,0.2,2.1,0.6,2.9,1.1c0.8,0.5,1.4,1.3,1.9,2.3
		c0.5,1,0.7,2.1,0.7,3.2c0,2-0.6,3.7-1.9,5.1c-1.3,1.4-3.5,2.1-6.8,2.1h-6v9.7H195.7z M198.8,80.4h6c2,0,3.4-0.4,4.2-1.1
		c0.8-0.8,1.3-1.8,1.3-3.2c0-1-0.2-1.8-0.7-2.6c-0.5-0.7-1.1-1.2-1.9-1.4c-0.5-0.1-1.5-0.2-2.9-0.2h-6V80.4z"/>
	<path class="st2" d="M226.9,50.1c1.4,0,2.6,0.5,3.5,1.5c0.9,1,1.4,2.2,1.4,3.5c0,1.4-0.5,2.6-1.4,3.5c-1,1-2.2,1.5-3.5,1.5
		c-1.3,0-2.5-0.5-3.5-1.5c-1-1-1.4-2.2-1.4-3.5c0-1.4,0.5-2.6,1.5-3.6C224.4,50.6,225.6,50.1,226.9,50.1 M231.2,55.2
		c0-1.2-0.4-2.3-1.2-3.1c-0.8-0.9-1.9-1.3-3.1-1.3c-1.2,0-2.2,0.4-3,1.2c-0.9,0.9-1.3,2-1.3,3.1c0,1.2,0.4,2.2,1.3,3.1
		c0.8,0.9,1.8,1.3,3,1.3c1.2,0,2.2-0.4,3.1-1.3C230.8,57.4,231.2,56.4,231.2,55.2 M227.1,52.2c1.6,0,2.3,0.5,2.3,1.6
		c0,0.9-0.4,1.4-1.3,1.5l1.3,2.6h-1.2l-1.1-2.4h-1v2.4h-1.1v-5.7H227.1z M226.9,52.9H226v1.9h0.9c0.9,0,1.4-0.3,1.4-0.9
		C228.3,53.2,227.8,52.9,226.9,52.9"/>
</g>
</svg>
